<?xml version="1.0" standalone="no"?>
<!DOCTYPE svg PUBLIC "-//W3C//DTD SVG 20010904//EN"
 "http://www.w3.org/TR/2001/REC-SVG-20010904/DTD/svg10.dtd">
<svg version="1.0" xmlns="http://www.w3.org/2000/svg"
 width="500.000000pt" height="500.000000pt" viewBox="0 0 500.000000 500.000000"
 preserveAspectRatio="xMidYMid meet">

<g transform="translate(0.000000,500.000000) scale(0.100000,-0.100000)"
fill="#000000" stroke="none">
<path d="M1395 3089 c-112 -18 -211 -74 -298 -168 l-48 -51 -45 11 c-70 18
-247 6 -316 -20 -65 -25 -70 -31 -78 -86 -4 -30 -10 -41 -25 -43 -33 -6 -36
-16 -20 -62 18 -51 21 -45 -92 -181 -74 -89 -161 -198 -192 -240 -22 -31 4
-137 36 -150 92 -35 387 -95 678 -139 66 -9 170 -26 231 -35 61 -10 118 -16
127 -12 16 6 132 158 236 309 29 42 59 82 67 88 7 7 49 14 93 17 98 7 109 13
93 48 -7 14 -12 35 -12 47 0 12 -12 36 -26 55 -24 32 -25 35 -9 47 16 11 13
21 -35 117 -29 57 -72 138 -95 179 -23 41 -61 118 -85 170 -23 52 -47 98 -54
102 -14 9 -65 8 -131 -3z m164 -95 c20 -49 49 -111 65 -139 44 -73 166 -306
166 -315 0 -4 -48 -22 -107 -40 -123 -37 -265 -105 -318 -151 -20 -17 -37 -30
-38 -28 -26 46 -172 349 -187 388 -11 30 -32 73 -45 96 -14 23 -25 48 -25 56
0 32 146 151 228 186 34 14 195 43 216 39 5 -1 26 -42 45 -92z m-572 -125 c59
-10 65 -14 87 -53 14 -22 39 -77 56 -120 17 -43 63 -141 103 -217 40 -75 70
-139 67 -142 -3 -3 -34 1 -70 10 -91 21 -224 13 -320 -21 -41 -14 -75 -24 -76
-23 -1 1 -14 38 -29 82 -15 44 -33 90 -41 102 -8 13 -30 60 -48 105 -19 46
-46 111 -60 145 -14 35 -26 67 -26 73 0 15 83 49 144 59 74 13 141 12 213 0z
m-316 -196 c23 -60 55 -133 70 -164 36 -72 90 -231 76 -222 -7 4 -8 0 -4 -11
4 -10 7 -22 7 -27 0 -6 5 -7 10 -4 6 4 8 10 5 14 -9 15 29 38 100 61 95 31
243 32 330 2 l60 -21 115 54 c123 57 225 85 314 85 83 0 68 -16 -21 -23 -98
-8 -220 -39 -300 -77 -90 -42 -78 -44 17 -3 88 38 237 73 313 73 84 0 50 -17
-45 -23 -109 -6 -232 -42 -328 -94 l-65 -36 -77 13 c-89 14 -200 7 -332 -21
-100 -21 -107 -19 -124 40 -7 21 -28 73 -47 115 -42 93 -45 111 -5 36 40 -77
37 -58 -5 31 -20 41 -33 63 -30 49 10 -40 -11 -5 -46 80 -19 43 -33 97 -35
128 -2 28 -2 52 0 52 2 0 23 -48 47 -107z m-46 -29 c12 -33 33 -80 45 -103 18
-35 19 -45 8 -52 -10 -7 -9 -9 4 -9 10 0 17 -3 16 -7 -2 -5 14 -42 34 -83 21
-41 44 -100 52 -130 8 -30 15 -51 15 -47 1 4 9 3 19 -2 13 -7 22 -7 29 0 5 5
31 11 56 12 26 1 47 5 47 10 0 4 7 7 15 7 8 0 15 -4 15 -10 0 -5 5 -10 11 -10
5 0 7 5 3 12 -4 7 -3 8 4 4 7 -4 12 -1 12 6 0 9 3 9 10 -2 5 -8 10 -10 10 -5
0 6 9 11 21 12 17 2 19 -1 8 -13 -7 -9 -21 -13 -31 -11 -10 3 -18 1 -18 -4 0
-5 -10 -9 -22 -8 -13 0 -35 -2 -50 -5 -17 -2 -28 0 -28 7 0 6 -6 4 -12 -5 -7
-9 -35 -18 -63 -22 -27 -3 -44 -3 -37 0 6 3 12 10 12 15 0 6 -5 7 -10 4 -6 -3
-12 1 -15 9 -3 9 -8 24 -12 34 -3 9 -5 20 -5 25 1 4 -3 7 -9 7 -5 0 -7 5 -4
10 3 6 2 10 -3 10 -6 0 -8 10 -5 23 3 16 2 18 -5 8 -8 -10 -12 -6 -18 20 -4
19 -7 40 -5 47 1 6 -3 12 -9 12 -5 0 -10 6 -10 14 0 8 -6 21 -13 28 -21 21
-39 57 -32 68 3 5 1 11 -5 15 -6 4 -8 11 -5 16 4 5 2 9 -3 9 -6 0 -17 17 -25
38 -9 20 -23 54 -32 75 -15 36 -15 38 1 35 9 -2 25 -28 39 -64z m-20 -74 c9
-17 13 -36 9 -43 -27 -46 -208 -296 -218 -300 -17 -7 -87 7 -88 17 -1 8 271
356 278 356 2 0 11 -14 19 -30z m1176 -82 c10 -13 18 -26 19 -30 0 -5 -28 -8
-63 -8 -75 0 -183 -28 -286 -75 -89 -41 -67 -19 34 33 59 30 242 99 268 101 5
1 17 -9 28 -21z m-1073 -153 c28 -66 56 -132 61 -147 6 -16 16 -28 23 -28 7 0
71 10 141 21 l128 22 22 -20 c35 -32 62 -43 107 -43 35 0 48 6 77 35 20 20 45
35 58 35 13 0 44 9 69 20 25 10 46 17 46 15 0 -3 -30 -43 -67 -90 -52 -67 -71
-84 -87 -80 -41 9 -243 35 -381 50 -108 11 -391 67 -414 81 -1 2 8 18 22 36
13 18 50 75 82 126 31 51 58 92 60 90 1 -2 25 -57 53 -123z m1122 26 c0 -5
-33 -11 -74 -15 -110 -10 -188 -29 -310 -75 -108 -41 -111 -41 -225 -39 -64 1
-122 -1 -129 -6 -7 -4 -16 -5 -19 -2 -4 3 -1 6 6 6 7 0 10 4 6 9 -11 18 67 24
153 12 l86 -12 90 45 c113 56 184 76 306 85 97 7 110 6 110 -8z m-207 -64
c-15 -24 -222 -311 -247 -342 l-24 -30 -118 18 c-252 39 -365 57 -544 87 -101
17 -186 33 -188 34 -5 6 -22 120 -18 124 2 2 69 -12 148 -32 92 -23 212 -43
337 -57 107 -11 226 -26 265 -33 l71 -12 10 -47 c6 -27 14 -48 19 -48 9 -1
158 184 233 289 25 34 49 62 54 62 6 0 6 -6 2 -13z m-84 -64 c-24 -32 -70 -91
-104 -133 -33 -41 -68 -86 -77 -99 -21 -30 -24 -28 -32 24 -6 38 -2 44 54 115
33 41 71 89 84 105 13 17 26 27 30 24 3 -3 -26 -46 -66 -95 -39 -49 -74 -94
-77 -99 -11 -19 49 48 111 125 55 68 78 91 78 77 0 -3 -39 -52 -86 -109 -47
-57 -90 -112 -95 -123 -5 -11 3 -4 18 15 15 19 53 64 83 100 31 36 69 82 84
103 16 21 31 35 34 33 3 -3 -15 -31 -39 -63z m-1127 -82 c10 -30 16 -57 13
-59 -2 -3 -25 1 -50 8 -51 14 -70 36 -80 92 l-7 36 53 -11 c51 -12 52 -13 71
-66z m835 34 c-17 -15 -40 -25 -58 -25 -37 0 -102 26 -95 38 3 5 45 10 93 11
l88 1 -28 -25z"/>
<path d="M1350 2986 c-86 -30 -116 -47 -170 -96 -55 -50 -34 -41 36 16 50 40
166 87 239 97 28 4 28 4 -5 5 -19 0 -64 -9 -100 -22z"/>
<path d="M1450 2934 c-81 -22 -190 -78 -241 -123 -55 -50 -46 -54 12 -5 23 19
59 44 80 54 60 31 169 70 195 70 13 0 24 5 24 10 0 12 -2 12 -70 -6z"/>
<path d="M1483 2875 c-100 -31 -239 -120 -264 -168 -7 -14 6 -6 32 20 59 56
157 111 249 139 41 12 64 23 50 23 -14 0 -44 -6 -67 -14z"/>
<path d="M1507 2799 c-79 -19 -221 -111 -248 -161 -7 -13 11 -1 45 29 72 63
143 103 226 124 66 18 46 24 -23 8z"/>
<path d="M1570 2721 c-19 -4 -61 -19 -93 -34 -65 -29 -210 -127 -202 -135 3
-3 38 17 78 45 94 65 165 101 219 109 48 7 87 24 53 23 -11 -1 -36 -4 -55 -8z"/>
<path d="M1620 2653 c-163 -56 -264 -107 -306 -155 -22 -25 -5 -17 46 23 44
35 207 107 261 115 21 4 42 11 45 15 6 10 -21 11 -46 2z"/>
<path d="M1645 2595 c-73 -20 -277 -119 -300 -146 l-20 -23 30 21 c43 30 258
130 297 138 33 7 72 25 53 24 -5 0 -32 -6 -60 -14z"/>
<path d="M782 2816 c-30 -7 -59 -19 -65 -25 -7 -7 6 -6 33 4 51 18 138 23 230
13 48 -5 57 -4 35 3 -52 17 -177 19 -233 5z"/>
<path d="M836 2744 c-43 -8 -85 -19 -95 -25 -14 -8 -13 -9 4 -5 71 18 162 29
240 29 55 0 80 3 65 8 -39 11 -128 8 -214 -7z"/>
<path d="M834 2670 c-28 -4 -60 -13 -70 -19 -18 -12 -18 -12 1 -6 46 14 184
27 251 23 40 -3 71 -1 68 4 -6 10 -178 9 -250 -2z"/>
<path d="M853 2598 c-24 -5 -43 -14 -43 -20 0 -10 31 -95 60 -165 9 -22 11
-22 51 -8 23 8 54 15 70 15 15 0 30 3 32 8 6 10 -54 165 -67 174 -14 10 -50 8
-103 -4z m128 -75 c13 -38 24 -72 24 -78 0 -5 -16 -12 -35 -16 -19 -3 -46 -9
-60 -13 -24 -6 -27 -2 -55 71 -16 43 -31 81 -33 85 -5 9 26 16 84 17 l50 1 25
-67z"/>
<path d="M1011 2606 c2 -2 33 -6 68 -9 41 -3 59 -2 50 4 -13 8 -128 14 -118 5z"/>
<path d="M1065 2550 c-27 -7 -28 -8 -5 -8 14 0 34 3 45 8 25 11 2 11 -40 0z"/>
<path d="M1138 2543 c7 -3 16 -2 19 1 4 3 -2 6 -13 5 -11 0 -14 -3 -6 -6z"/>
<path d="M1051 2486 c2 -2 36 -6 74 -9 46 -4 65 -3 55 3 -14 9 -139 15 -129 6z"/>
<path d="M1100 2439 c-28 -5 -23 -7 27 -8 34 0 69 -4 79 -8 11 -4 15 -3 11 4
-9 14 -71 20 -117 12z"/>
<path d="M651 2655 c0 -5 6 -21 14 -35 8 -14 14 -20 14 -15 0 6 -6 21 -14 35
-8 14 -14 21 -14 15z"/>
<path d="M680 2585 c0 -5 5 -17 10 -25 5 -8 10 -10 10 -5 0 6 -5 17 -10 25 -5
8 -10 11 -10 5z"/>
<path d="M770 2375 c0 -5 5 -17 10 -25 5 -8 10 -10 10 -5 0 6 -5 17 -10 25 -5
8 -10 11 -10 5z"/>
<path d="M790 2325 c0 -5 5 -17 10 -25 5 -8 10 -10 10 -5 0 6 -5 17 -10 25 -5
8 -10 11 -10 5z"/>
<path d="M991 2309 c-53 -10 -144 -40 -139 -45 2 -2 33 6 68 18 51 16 92 21
188 22 68 1 113 4 100 8 -33 9 -165 7 -217 -3z"/>
<path d="M1248 2293 c7 -3 16 -2 19 1 4 3 -2 6 -13 5 -11 0 -14 -3 -6 -6z"/>
<path d="M1181 2021 c-12 -8 -12 -12 -2 -24 20 -24 62 -30 80 -12 15 15 14 17
-3 31 -22 16 -54 18 -75 5z"/>
<path d="M1861 2768 c0 -30 1 -31 9 -11 10 24 50 39 75 29 12 -4 15 -26 15
-104 0 -93 -1 -100 -22 -110 -19 -9 -11 -11 47 -11 51 0 64 3 48 9 -29 12 -35
37 -31 135 l3 80 30 3 c23 3 35 -3 52 -25 l23 -28 0 33 0 32 -125 0 -125 0 1
-32z"/>
<path d="M2183 2789 c14 -8 17 -25 17 -109 0 -84 -3 -101 -17 -109 -14 -8 -3
-10 42 -10 33 1 52 3 43 6 -21 5 -31 38 -26 79 3 28 5 29 61 32 l57 3 0 -50
c0 -37 -5 -53 -17 -60 -14 -8 -4 -10 42 -10 46 0 56 2 43 10 -15 8 -18 25 -18
114 0 73 4 105 13 108 6 3 -13 6 -43 6 -42 0 -51 -2 -37 -10 12 -7 17 -23 17
-55 l0 -45 -57 3 -58 3 -3 40 c-3 29 1 43 14 52 15 11 10 13 -37 13 -41 -1
-50 -3 -36 -11z"/>
<path d="M2524 2784 c12 -12 16 -37 16 -104 0 -80 -2 -90 -22 -104 -21 -15
-15 -16 84 -16 113 0 118 2 118 53 0 21 -2 20 -23 -6 -19 -25 -28 -28 -67 -25
l-45 3 -3 48 c-3 44 -2 47 21 47 14 0 31 -10 40 -22 15 -22 16 -21 16 26 l1
50 -20 -22 c-12 -12 -30 -22 -40 -22 -17 0 -20 7 -20 50 l0 50 38 0 c39 0 66
-14 75 -40 3 -8 6 0 6 18 l1 32 -96 0 c-87 0 -94 -1 -80 -16z"/>
<path d="M3905 2460 c-47 -10 -73 -28 -90 -60 -25 -48 -19 -94 16 -134 51 -59
142 -61 199 -5 25 25 30 39 30 78 0 26 -7 56 -16 69 -27 39 -90 63 -139 52z
m76 -39 c24 -25 29 -38 29 -79 0 -68 -27 -102 -81 -102 -33 0 -42 5 -60 33
-29 46 -22 122 15 154 36 31 62 29 97 -6z"/>
<path d="M1883 2449 c14 -8 17 -25 17 -104 0 -86 -2 -95 -22 -110 -22 -16 -18
-17 74 -13 104 4 138 19 138 62 0 28 -9 40 -45 59 -20 11 -24 16 -13 17 22 0
41 35 33 61 -9 28 -45 39 -128 39 -54 -1 -68 -3 -54 -11z m111 -9 c18 -6 26
-17 26 -33 0 -31 -18 -47 -52 -47 -26 0 -28 3 -28 38 0 54 8 60 54 42z m24
-116 c41 -29 23 -84 -28 -84 -36 0 -50 17 -50 62 0 35 2 38 28 38 15 0 38 -7
50 -16z"/>
<path d="M2218 2445 c-15 -9 -35 -29 -43 -45 -69 -134 116 -246 220 -134 37
40 35 112 -4 156 -24 28 -35 32 -87 35 -40 2 -68 -2 -86 -12z m123 -24 c24
-25 29 -38 29 -79 0 -67 -27 -102 -79 -102 -56 0 -76 27 -76 102 0 53 3 62 28
84 37 32 62 30 98 -5z"/>
<path d="M2553 2440 c-41 -25 -53 -48 -53 -104 0 -36 6 -50 30 -75 106 -105
282 9 215 139 -30 59 -128 79 -192 40z m124 -14 c25 -22 28 -31 28 -84 0 -75
-20 -102 -76 -102 -52 0 -79 35 -79 102 0 41 5 54 29 79 36 35 61 37 98 5z"/>
<path d="M2843 2449 c14 -8 17 -25 17 -109 0 -84 -3 -101 -17 -109 -14 -8 -6
-10 35 -11 53 0 53 0 38 22 -19 26 -21 59 -5 75 9 9 20 1 45 -29 37 -43 41
-54 22 -61 -7 -3 12 -6 43 -6 l55 -1 -44 48 c-24 26 -52 59 -63 73 l-18 26 42
40 c23 22 49 43 57 46 8 3 -4 6 -27 6 -33 1 -41 -2 -37 -13 5 -14 -60 -96 -77
-96 -11 0 -12 70 -1 86 4 6 14 14 22 17 8 3 -12 6 -45 6 -45 0 -56 -2 -42 -10z"/>
<path d="M3277 2442 c-22 -24 -22 -65 -1 -83 9 -8 38 -25 63 -39 52 -28 60
-57 22 -76 -32 -16 -75 0 -90 33 -15 33 -21 27 -13 -12 8 -32 15 -36 79 -43
35 -3 46 0 67 22 47 46 30 85 -55 125 -62 30 -72 59 -27 75 24 8 32 6 58 -19
l30 -29 0 30 c0 29 -1 29 -58 32 -46 2 -61 -1 -75 -16z"/>
<path d="M3491 2428 c0 -18 3 -26 6 -18 8 24 35 40 65 40 l28 0 0 -103 c0 -98
-1 -105 -22 -115 -19 -9 -11 -11 47 -11 51 0 64 3 48 9 -29 12 -35 37 -31 135
l3 80 30 3 c23 3 35 -3 52 -25 l23 -28 0 33 0 32 -125 0 -125 0 1 -32z"/>
<path d="M4143 2453 c15 -4 17 -18 17 -108 0 -89 -3 -106 -17 -114 -14 -8 -2
-10 47 -10 49 0 59 3 43 9 -19 8 -23 17 -23 55 0 25 3 45 8 45 4 0 27 -25 50
-55 37 -47 48 -55 77 -55 l34 0 -50 52 c-27 28 -49 55 -49 59 0 4 9 10 19 14
11 3 24 19 30 36 9 27 7 33 -14 55 -22 22 -32 24 -107 23 -46 -1 -75 -3 -65
-6z m129 -20 c35 -31 12 -83 -38 -83 -22 0 -24 4 -24 50 0 45 2 50 22 50 12 0
30 -7 40 -17z"/>
<path d="M4443 2449 c14 -8 17 -25 17 -109 0 -84 -3 -101 -17 -109 -13 -8 12
-10 90 -11 l107 0 0 38 c0 36 -1 36 -13 12 -10 -20 -21 -26 -57 -28 -52 -4
-70 13 -70 65 0 28 4 33 23 33 26 0 42 -10 50 -30 3 -8 6 6 6 33 l1 47 -21
-21 c-33 -33 -54 -21 -54 31 l0 45 41 3 c35 3 45 -1 63 -24 l21 -27 0 32 0 31
-102 0 c-75 -1 -98 -3 -85 -11z"/>
</g>
</svg>
